<?xml version="1.0" encoding="UTF-8" standalone="no"?>
<svg
   xmlns:dc="http://purl.org/dc/elements/1.1/"
   xmlns:cc="http://creativecommons.org/ns#"
   xmlns:rdf="http://www.w3.org/1999/02/22-rdf-syntax-ns#"
   xmlns:svg="http://www.w3.org/2000/svg"
   xmlns="http://www.w3.org/2000/svg"
   id="svg134"
   version="1.1"
   height="141.745"
   width="311">
  <metadata
     id="metadata140">
    <rdf:RDF>
      <cc:Work
         rdf:about="">
        <dc:format>image/svg+xml</dc:format>
        <dc:type
           rdf:resource="http://purl.org/dc/dcmitype/StillImage" />
        <dc:title></dc:title>
      </cc:Work>
    </rdf:RDF>
  </metadata>
  <defs
     id="defs138" />
  <g
     id="g132"
     data-name="Group 600">
    <g
       id="g68"
       data-name="Group 599">
      <path
         id="path2"
         d="M191.999 96h8v2h-8z"
         fill="#eef3f5"
         data-name="Rectangle 335" />
      <path
         id="path4"
         d="M191.999 79h8v2h-8z"
         fill="#eef3f5"
         data-name="Rectangle 336" />
      <path
         id="path6"
         d="M87.999 96h7v2h-7z"
         fill="#eef3f5"
         data-name="Rectangle 337" />
      <path
         id="path8"
         d="M87.999 79h7v2h-7z"
         fill="#eef3f5"
         data-name="Rectangle 338" />
      <path
         id="path10"
         d="M87.999 117h8v6h-8z"
         fill="#eef3f5"
         data-name="Rectangle 331" />
      <path
         id="path12"
         d="M191.999 117h8v6h-8z"
         fill="#eef3f5"
         data-name="Rectangle 332" />
      <path
         id="path14"
         d="M83.999 112h16v3h-16z"
         fill="#eef3f5"
         data-name="Rectangle 333" />
      <path
         id="path16"
         d="M186.999 112h16v3h-16z"
         fill="#eef3f5"
         data-name="Rectangle 334" />
      <g
         id="g22"
         stroke-width="2"
         stroke="#dbdee5"
         fill="none"
         transform="translate(75.999 67)"
         data-name="Rectangle 328">
        <rect
           id="rect18"
           stroke="none"
           rx="4"
           height="14"
           width="134" />
        <rect
           id="rect20"
           rx="3"
           height="12"
           width="132"
           y="1"
           x="1" />
      </g>
      <g
         id="g28"
         stroke-width="2"
         stroke="#dbdee5"
         fill="none"
         transform="translate(75.999 82)"
         data-name="Rectangle 329">
        <rect
           id="rect24"
           stroke="none"
           rx="4"
           height="14"
           width="134" />
        <rect
           id="rect26"
           rx="3"
           height="12"
           width="132"
           y="1"
           x="1" />
      </g>
      <g
         id="g34"
         stroke-width="2"
         stroke="#dbdee5"
         fill="none"
         transform="translate(68.999 104)"
         data-name="Rectangle 330">
        <rect
           id="rect30"
           stroke="none"
           rx="4"
           height="9"
           width="149" />
        <rect
           id="rect32"
           rx="3"
           height="7"
           width="147"
           y="1"
           x="1" />
      </g>
      <path
         id="path36"
         stroke-width="2"
         stroke="#dbdee5"
         fill="none"
         d="M88.312 67.249V61.88h6.564v5.369"
         data-name="Path 497" />
      <path
         id="path38"
         stroke-width="2"
         stroke="#dbdee5"
         fill="none"
         d="M88.312 79.776v3.037"
         data-name="Path 498" />
      <path
         id="path40"
         stroke-width="2"
         stroke="#dbdee5"
         fill="none"
         d="M94.876 79.776v3.375"
         data-name="Path 499" />
      <path
         id="path42"
         stroke-width="2"
         stroke="#dbdee5"
         fill="none"
         d="M88.312 96.024v9.124"
         data-name="Path 500" />
      <path
         id="path44"
         stroke-width="2"
         stroke="#dbdee5"
         fill="none"
         d="M94.876 96.024v9.463"
         data-name="Path 501" />
      <path
         id="path46"
         stroke-width="2"
         stroke="#dbdee5"
         fill="none"
         d="M191.978 67.249V61.88h6.564v5.369"
         data-name="Path 502" />
      <path
         id="path48"
         stroke-width="2"
         stroke="#dbdee5"
         fill="none"
         d="M191.978 79.776v3.037"
         data-name="Path 503" />
      <path
         id="path50"
         stroke-width="2"
         stroke="#dbdee5"
         fill="none"
         d="M198.542 79.776v3.375"
         data-name="Path 504" />
      <path
         id="path52"
         stroke-width="2"
         stroke="#dbdee5"
         fill="none"
         d="M191.978 96.024v9.124"
         data-name="Path 505" />
      <path
         id="path54"
         stroke-width="2"
         stroke="#dbdee5"
         fill="none"
         d="M198.542 96.024v9.463"
         data-name="Path 506" />
      <path
         id="path56"
         stroke-width="2"
         stroke="#dbdee5"
         fill="none"
         d="M83.772 112.399v4.724h15.97v-4.724"
         data-name="Path 507" />
      <path
         id="path58"
         stroke-width="2"
         stroke="#dbdee5"
         fill="none"
         d="M88.312 116.949v23.759"
         data-name="Path 508" />
      <path
         id="path60"
         stroke-width="2"
         stroke="#dbdee5"
         fill="none"
         d="M95.275 116.949v23.759"
         data-name="Path 509" />
      <path
         id="path62"
         stroke-width="2"
         stroke="#dbdee5"
         fill="none"
         d="M187.438 112.399v4.724h15.97v-4.724"
         data-name="Path 510" />
      <path
         id="path64"
         stroke-width="2"
         stroke="#dbdee5"
         fill="none"
         d="M191.978 116.949v23.759"
         data-name="Path 511" />
      <path
         id="path66"
         stroke-width="2"
         stroke="#dbdee5"
         fill="none"
         d="M198.941 116.949v23.759"
         data-name="Path 512" />
    </g>
    <g
       id="g74"
       stroke-width="2"
       stroke="#212225"
       fill="#fff"
       transform="translate(91 73)"
       data-name="Ellipse 49">
      <circle
         id="circle70"
         stroke="none"
         r="1"
         cy="1"
         cx="1" />
      <circle
         id="circle72"
         fill="none"
         r="2"
         cy="1"
         cx="1" />
    </g>
    <g
       id="g80"
       stroke-width="2"
       stroke="#212225"
       fill="#fff"
       transform="translate(91 88)"
       data-name="Ellipse 50">
      <circle
         id="circle76"
         stroke="none"
         r="1"
         cy="1"
         cx="1" />
      <circle
         id="circle78"
         fill="none"
         r="2"
         cy="1"
         cx="1" />
    </g>
    <g
       id="g86"
       stroke-width="2"
       stroke="#212225"
       fill="#fff"
       transform="translate(194 73)"
       data-name="Ellipse 51">
      <circle
         id="circle82"
         stroke="none"
         r="1"
         cy="1"
         cx="1" />
      <circle
         id="circle84"
         fill="none"
         r="2"
         cy="1"
         cx="1" />
    </g>
    <g
       id="g92"
       stroke-width="2"
       stroke="#212225"
       fill="#fff"
       transform="translate(194 88)"
       data-name="Ellipse 52">
      <circle
         id="circle88"
         stroke="none"
         r="1"
         cy="1"
         cx="1" />
      <circle
         id="circle90"
         fill="none"
         r="2"
         cy="1"
         cx="1" />
    </g>
    <path
       id="path94"
       stroke-width="2"
       stroke="#212225"
       fill="none"
       d="M82.191 140.708h40.669"
       data-name="Path 513" />
    <path
       id="path96"
       stroke-width="2"
       stroke="#212225"
       fill="none"
       d="M139.599 140.708h117.873"
       data-name="Path 514" />
    <g
       id="g102"
       stroke-width="2"
       stroke="#212225"
       fill="none"
       transform="translate(221 13)"
       data-name="Ellipse 53">
      <circle
         id="circle98"
         stroke="none"
         r="25.5"
         cy="25.5"
         cx="25.5" />
      <circle
         id="circle100"
         r="24.5"
         cy="25.5"
         cx="25.5" />
    </g>
    <path
       id="path104"
       stroke-width="2"
       stroke="#212225"
       fill="none"
       d="M243.467 63.029v77.328"
       data-name="Path 515" />
    <path
       id="path106"
       stroke-width="2"
       stroke-linecap="round"
       stroke="#dbdee5"
       fill="none"
       d="M248.883 67.436v36.29"
       data-name="Path 516" />
    <path
       id="path108"
       stroke-width="2"
       stroke-linecap="round"
       stroke="#dbdee5"
       fill="none"
       d="M248.883 113.658v22.647"
       data-name="Path 517" />
    <path
       id="path110"
       d="M22.224 140.745h58.234"
       stroke-width="2"
       stroke="#dbdee5"
       fill="none"
       data-name="Фигура 1 копия" />
    <path
       id="path112"
       stroke-width="2"
       stroke="#dbdee5"
       fill="none"
       d="M51.341 141.091a7.093 7.093 0 017.093-7.093h2.986a7.093 7.093 0 017.093 7.093"
       data-name="Прямоугольник, скругл. углы 13" />
    <path
       id="path114"
       stroke-width="2"
       stroke="#dbdee5"
       fill="none"
       d="M28.943 140.718a3.575 3.575 0 013.392-3.733h1.428a3.575 3.575 0 013.392 3.733"
       data-name="Прямоугольник, скругл. углы 13 копия" />
    <path
       id="path116"
       stroke-width="2"
       stroke="#dbdee5"
       fill="none"
       d="M65.566 135.491h4.227a4.992 4.992 0 014.719 5.226"
       data-name="Прямоугольник, скругл. углы 13 копия 3" />
    <path
       id="path118"
       stroke-width="2"
       stroke="#212225"
       fill="none"
       d="M226.197 136.754a7.345 7.345 0 016.28-3.529h3.095a7.349 7.349 0 017.349 7.349"
       data-name="Прямоугольник, скругл. углы 13 копия 4" />
    <path
       id="path120"
       stroke-width="2"
       stroke="#212225"
       fill="none"
       d="M219.711 140.961a4.56 4.56 0 014.474-4.642h1.884a4.56 4.56 0 014.474 4.642"
       data-name="Прямоугольник, скругл. углы 13 копия 5" />
    <path
       id="path122"
       fill="#dbdee5"
       d="M20.888 136v-19.429H0v-1.554h20.888V103.36h1.547v11.657H42.55v1.554H22.435V136zm266.129-10.88V108.8h-16.246v-1.554h16.246V77.714h-8.51V76.16h8.51v-6.994h1.548v6.994h10.057v1.554h-10.057v29.532H311v1.554h-22.435v16.32zm-28.624-13.211V108.8H255.3v-1.554h3.094v-3.109h1.547v3.109h3.095v1.554h-3.096v3.108zM20.888 96.366v-3.109h-3.094V91.7h3.094v-3.106h1.547V91.7h3.095v1.555h-3.095v3.108zm41.776-9.326v-37.3h-14.7v-1.557h14.7V18.652h-8.51V17.1h8.51V0h1.547v17.1h29.4V0h1.547v17.1h9.283v1.554h-9.284v29.529h3.094v1.554h-3.094v6.217H93.61v-6.217h-29.4v37.3zM93.61 48.183V18.652h-29.4v29.531zm114.5 6.994V18.652h-6.963V17.1h6.963v-4.666h1.547V17.1h11.6v1.554h-11.6v36.523zM115.271 21.76v-3.108h-3.095V17.1h3.095v-3.111h1.547V17.1h3.094v1.554h-3.094v3.106z"
       data-name="Прямоугольник 1 копия 14" />
    <g
       id="g128"
       stroke-width="2"
       stroke="#e5f0f8"
       fill="none"
       transform="translate(226 18)"
       data-name="Ellipse 54">
      <ellipse
         id="ellipse124"
         stroke="none"
         ry="20.5"
         rx="20"
         cy="20.5"
         cx="20" />
      <ellipse
         id="ellipse126"
         ry="19.5"
         rx="19"
         cy="20.5"
         cx="20" />
    </g>
  </g>
</svg>
